<svg xmlns="http://www.w3.org/2000/svg" viewBox="0 0 48.7 58.12"><defs><style>.cls-1{fill:#fff;}.cls-2{fill:#f9d341;}.cls-3{fill:none;}</style></defs><g id="Layer_2" data-name="Layer 2"><g id="Layer_1-2" data-name="Layer 1"><polygon class="cls-1" points="7.27 24.74 7.27 50.47 0 57.84 0 24.74 7.27 24.74"/><polygon class="cls-1" points="30.36 27.32 15.57 42.12 7.27 50.42 0 57.68 0 46.33 7.27 39.06 9.89 36.44 24.72 21.6 30.36 27.32"/><polygon class="cls-2" points="30.24 5.89 8.76 27.36 7.27 28.85 6.92 29.2 0 36.12 0 24.76 0.02 24.74 3.08 21.68 12.57 12.2 24.63 0.14 30.18 5.84 30.24 5.89"/><polygon class="cls-2" points="34.02 46.02 21.92 58.12 10.22 58.12 29.64 38.7 34.02 46.02"/><path class="cls-3" d="M48.7,24.77V58.12H0V25l.29-.3L12.57,12.2,24.5,0l.13.14,5.55,5.7.06,0h0l7.32,7.49h0l1.16,1.18Z"/><path class="cls-1" d="M38.74,14.58a3.9,3.9,0,0,0-.55-.68,3.61,3.61,0,0,0-.61-.5h0a3.76,3.76,0,0,0-2.22-.67,4,4,0,0,0-4,4,3.79,3.79,0,0,0,1.17,2.79,4,4,0,0,0,5.68,0,3.79,3.79,0,0,0,1.17-2.79A3.88,3.88,0,0,0,38.74,14.58Z"/><polygon class="cls-2" points="7.27 29.2 7.27 50.47 0 57.84 0 29.2 7.27 29.2"/></g></g></svg>