<svg width="24" height="13" viewBox="0 0 24 13" fill="none" xmlns="http://www.w3.org/2000/svg">
<path d="M7.17639 7.37037L7.17673 7.37006C7.43405 7.13607 7.54019 6.79673 7.54019 6.40396C7.54019 6.22715 7.50551 6.04997 7.44034 5.87372C7.38177 5.69365 7.29558 5.52977 7.16226 5.41919L1.98069 0.916391C1.85984 0.805075 1.71066 0.75 1.54765 0.75C1.27736 0.75 1.07848 0.917044 0.943137 1.13858C0.809745 1.35691 0.75 1.6137 0.75 1.89639C0.75 2.29928 0.862394 2.64544 1.13378 2.87944C1.13389 2.87954 1.13401 2.87965 1.13413 2.87975L5.21568 6.42085L1.13094 10.123C1.00712 10.232 0.921874 10.3926 0.858917 10.57C0.792937 10.7474 0.757824 10.9257 0.757824 11.1036C0.757824 11.3868 0.817733 11.6454 0.948213 11.8696L0.948009 11.8697L0.953872 11.8789C1.09191 12.0941 1.2911 12.25 1.55548 12.25C1.72426 12.25 1.87069 12.179 1.99001 12.0694C1.99028 12.0692 1.99054 12.0689 1.99081 12.0687L7.17639 7.37037ZM15.0313 7.37037L15.0316 7.37006C15.289 7.13607 15.3951 6.79673 15.3951 6.40396C15.3951 6.22715 15.3604 6.04997 15.2952 5.87372C15.2367 5.69365 15.1505 5.52977 15.0172 5.41919L9.8356 0.916393C9.71475 0.805076 9.56558 0.75 9.40256 0.75C9.13227 0.75 8.93339 0.917044 8.79804 1.13858C8.66465 1.35691 8.60491 1.6137 8.60491 1.89639C8.60491 2.29929 8.71731 2.64547 8.98872 2.87947C8.98882 2.87956 8.98893 2.87966 8.98904 2.87975L13.0706 6.42085L8.98583 10.1231C8.86201 10.232 8.77677 10.3926 8.71382 10.57C8.64784 10.7474 8.61273 10.9257 8.61273 11.1036C8.61273 11.3868 8.67264 11.6454 8.80312 11.8696L8.80292 11.8697L8.80878 11.8789C8.94682 12.0941 9.14601 12.25 9.41038 12.25C9.57913 12.25 9.72554 12.179 9.84484 12.0695C9.84514 12.0692 9.84543 12.0689 9.84572 12.0687L15.0313 7.37037ZM20.9255 6.42085L16.8407 10.123C16.7169 10.232 16.6317 10.3927 16.5687 10.5701C16.5027 10.7474 16.4676 10.9257 16.4676 11.1036C16.4676 11.3868 16.5275 11.6454 16.658 11.8696L16.6578 11.8697L16.6637 11.8789C16.8017 12.0941 17.0009 12.25 17.2653 12.25C17.434 12.25 17.5804 12.179 17.6998 12.0695C17.7 12.0692 17.7003 12.0689 17.7006 12.0687L22.8862 7.37037L22.8865 7.37006C23.1439 7.13607 23.25 6.79673 23.25 6.40396C23.25 6.22716 23.2153 6.04997 23.1502 5.87373C23.0916 5.69366 23.0054 5.52979 22.8721 5.4192L17.6905 0.916379C17.5696 0.805071 17.4205 0.75 17.2575 0.75C16.9872 0.75 16.7883 0.917044 16.653 1.13858C16.5196 1.35691 16.4598 1.6137 16.4598 1.89639C16.4598 2.29928 16.5722 2.64544 16.8436 2.87944C16.8437 2.87954 16.8438 2.87965 16.8439 2.87975L20.9255 6.42085Z" fill="black" stroke="black" stroke-width="0.5"/>
</svg>
