<svg xmlns="http://www.w3.org/2000/svg" viewBox="0 0 152.83 66.17"><defs><style>.cls-1{fill:#fff;}.cls-2{fill:#fece07;}.cls-3{fill:#231f20;}.cls-4{fill:none;}</style></defs><g id="Layer_2" data-name="Layer 2"><g id="Layer_1-2" data-name="Layer 1"><polygon class="cls-1" points="7.07 24.05 7.07 49.06 0 56.23 0 24.05 7.07 24.05"/><polygon class="cls-2" points="47.62 44.65 47.62 55.71 47.35 55.98 46.83 56.5 35.77 56.5 47.35 44.92 47.62 44.65"/><polygon class="cls-3" points="0 56.08 7.07 49.01 15.14 40.94 29.52 26.56 24.04 21 9.62 35.42 7.07 37.97 0 45.04 0 56.08"/><polygon class="cls-3" points="23.95 0.13 12.15 11.93 3 21.08 0.03 24.05 0 24.08 0 24.34 0 28.39 0 35.12 6.73 28.39 7.07 28.05 29.4 5.72 23.95 0.13"/><polygon class="cls-3" points="33.08 44.74 29.06 48.75 21.31 56.5 9.94 56.5 23.38 43.06 28.82 37.62 28.83 37.63 33.08 44.74"/><path class="cls-4" d="M47.35,24.08V56.5H0V24.34l.28-.29L12.15,11.93,23.83,0,24,.13l5.4,5.54,0,0v0L36.51,13h0l1.15,1.18h0l8.39,8.58Z"/><path class="cls-3" d="M46.08,22.78l-5.53,5.47v6.69l-3.93,0a10.84,10.84,0,0,0-7.75,2.67l0,0Q26,40.3,26,45.54a19.54,19.54,0,0,0,.71,5.52c1.11,3.82,3.29,5.44,4.79,5.44H47.62V21.26Zm-12.77,23a5.78,5.78,0,0,1,1.43-4.36,4.91,4.91,0,0,1,3.49-1.34,5.24,5.24,0,0,1,2.32.45V51a5.84,5.84,0,0,1-2.28.37C35,51.37,33.31,49.5,33.31,45.75Z"/><path class="cls-3" d="M96.29,34.8V56.45h7.07V34.8ZM37.69,14.2h0a3.9,3.9,0,0,0-.55-.68,4,4,0,0,0-.6-.5h0a3.72,3.72,0,0,0-2.14-.63,3.89,3.89,0,0,0-3.9,3.9A3.72,3.72,0,0,0,31.61,19a3.91,3.91,0,0,0,5.52,0,3.72,3.72,0,0,0,1.14-2.72A3.82,3.82,0,0,0,37.69,14.2Zm64.69,7.56a3.63,3.63,0,0,0-6.2,2.58,3.43,3.43,0,0,0,1.06,2.53,3.65,3.65,0,0,0,5.14,0,3.43,3.43,0,0,0,1.06-2.53A3.51,3.51,0,0,0,102.38,21.76Z"/><path class="cls-3" d="M131.63,56.46V36.37a19.43,19.43,0,0,1,4.63-1.14,42.18,42.18,0,0,1,5.91-.43,13.06,13.06,0,0,1,7.7,2.09,7.24,7.24,0,0,1,3,6.34V56.46h-7.07V43.56q0-3.68-3.76-3.68a8,8,0,0,0-3.3.58v16Z"/><path class="cls-3" d="M84.81,34.8q-9.77,0-9.76,6.78a5.75,5.75,0,0,0,1.14,3.7A5.56,5.56,0,0,0,79,47.2a26,26,0,0,0,3.26.76,16.1,16.1,0,0,1,2.77.67c.76.26,1.14.63,1.14,1.13,0,1.05-1.3,1.57-3.88,1.57a16,16,0,0,1-6.33-1.19v5.29a24,24,0,0,0,7.27,1q10.05,0,10-6.86a5.87,5.87,0,0,0-1.14-3.76,5.76,5.76,0,0,0-2.77-2A21.56,21.56,0,0,0,86.07,43a20.58,20.58,0,0,1-2.77-.61c-.76-.24-1.14-.6-1.14-1.1q0-1.41,3.27-1.41a14.11,14.11,0,0,1,6,1.35v-5.4a21.32,21.32,0,0,0-6.61-1.07"/><path class="cls-3" d="M63.57,51.37a7.11,7.11,0,0,1-4.14-.95,3.46,3.46,0,0,1-1.32-3H72a9.55,9.55,0,0,0,.34-2.47c0-3.45-1-6-2.83-7.65s-4.55-2.48-8-2.48-6.13.88-8.06,2.62-2.89,4.49-2.89,8.21q0,10.86,13,10.87a35.74,35.74,0,0,0,8.27-1.25V50a26,26,0,0,1-8.22,1.41M61.5,39.55a3,3,0,0,1,2.46,1,5.34,5.34,0,0,1,.76,3.25H58.48l-.37-.54q0-3.67,3.39-3.68"/><path class="cls-3" d="M119.11,34.8q-12.4,0-12.4,11,0,5.34,2.87,8a11.11,11.11,0,0,0,7.79,2.62,11.53,11.53,0,0,0,3.85-.54V57.2q0,3.88-5.34,3.88a17.76,17.76,0,0,1-7.6-1.49v5.1a18.06,18.06,0,0,0,7.11,1.48c1.18,0,2.34,0,3.47-.13a11.38,11.38,0,0,0,7-2.79c1.61-1.55,2.41-4,2.41-7.41V36.29a26.28,26.28,0,0,0-9.17-1.49m2.11,16a6.3,6.3,0,0,1-2.28.46,4.55,4.55,0,0,1-3.66-1.53A6.34,6.34,0,0,1,114,45.5a6,6,0,0,1,1.3-4.21,4.69,4.69,0,0,1,3.62-1.41,6.8,6.8,0,0,1,2.32.37Z"/><polygon class="cls-3" points="7.07 28.39 7.07 49.06 0 56.23 0 28.39 7.07 28.39"/></g></g></svg>