<svg width="802" height="268" viewBox="0 0 802 268" fill="none" xmlns="http://www.w3.org/2000/svg">
<path d="M368 57.1002H342V41.7802H412.78V57.1002H386.78V123H367.98L368 57.1002Z" fill="black"/>
<path d="M485.79 107.92V123H422.91V41.7802H484.28V56.8602H441.55V74.5002H479.26V89.1202H441.55V107.92H485.79Z" fill="black"/>
<path d="M539.39 124.39C531.562 124.495 523.83 122.664 516.88 119.06C510.377 115.556 504.929 110.377 501.1 104.06C497.269 97.4777 495.305 89.9754 495.42 82.3602C495.295 74.7816 497.26 67.315 501.1 60.7802C504.884 54.4268 510.343 49.2373 516.88 45.7802C523.298 42.5257 530.342 40.6912 537.532 40.4013C544.722 40.1114 551.891 41.3729 558.55 44.1002C564.124 46.4673 569.056 50.1243 572.94 54.7702L560.86 65.9102C558.387 62.8953 555.268 60.4751 551.733 58.8289C548.199 57.1828 544.339 56.3527 540.44 56.4002C535.736 56.3175 531.093 57.4764 526.98 59.7602C523.083 61.883 519.863 65.0612 517.69 68.9302C515.483 73.0682 514.368 77.701 514.45 82.3902C514.368 87.0794 515.483 91.7121 517.69 95.8502C519.879 99.7355 523.092 102.945 526.98 105.13C531.115 107.346 535.749 108.465 540.44 108.38C548.56 108.38 555.367 105.17 560.86 98.7502L572.93 109.89C569.077 114.594 564.143 118.296 558.55 120.68C552.486 123.219 545.964 124.482 539.39 124.39Z" fill="black"/>
<path d="M660.11 41.7802V123H641.31V89.7001H604.41V123H585.62V41.7802H604.41V73.7802H641.31V41.7802H660.11Z" fill="black"/>
<path d="M393.17 190.11C398.503 191.27 402.603 193.603 405.47 197.11C408.337 200.617 409.803 205.027 409.87 210.34C409.87 217.3 407.28 222.677 402.1 226.47C396.92 230.263 389.34 232.107 379.36 232H342V150.78H377C386.053 150.78 393.053 152.597 398 156.23C402.947 159.863 405.46 165.007 405.54 171.66C405.695 175.654 404.576 179.593 402.345 182.91C400.114 186.226 396.887 188.748 393.13 190.11H393.17ZM350.58 157.86V187.33H376.46C383.027 187.33 388.093 186.093 391.66 183.62C395.227 181.147 397.007 177.48 397 172.62C397 167.833 395.22 164.2 391.66 161.72C388.1 159.24 383.033 157.963 376.46 157.89L350.58 157.86ZM379.24 224.92C386.507 224.92 392 223.683 395.72 221.21C399.44 218.737 401.297 214.87 401.29 209.61C401.29 199.47 393.957 194.403 379.29 194.41H350.58V224.92H379.24Z" fill="black"/>
<path d="M484.93 232L466.37 205.89C464.212 206.131 462.042 206.248 459.87 206.24H438.06V232H429.47V150.78H459.87C470.243 150.78 478.367 153.257 484.24 158.21C490.113 163.163 493.053 169.97 493.06 178.63C493.236 184.395 491.522 190.06 488.18 194.76C485.007 199.093 480.443 202.223 474.49 204.15L494.33 232H484.93ZM459.64 198.93C467.693 198.93 473.843 197.15 478.09 193.59C482.337 190.03 484.463 185.03 484.47 178.59C484.47 172.01 482.343 166.98 478.09 163.5C473.837 160.02 467.687 158.243 459.64 158.17H438.06V198.89L459.64 198.93Z" fill="black"/>
<path d="M570.77 224.57V232H513.32V150.78H569.01V158.21H521.91V187.1H563.91V194.41H521.91V224.57H570.77Z" fill="black"/>
<path d="M648.37 224.57V232H590.94V150.78H646.63V158.21H599.53V187.1H641.53V194.41H599.53V224.57H648.37Z" fill="black"/>
<path d="M727.15 224.57V232H660.55V226.08L714.39 158.21H661.39V150.78H725.77V156.7L672.05 224.57H727.15Z" fill="black"/>
<path d="M801.57 224.57V232H744.13V150.78H799.83V158.21H752.77V187.1H794.77V194.41H752.77V224.57H801.57Z" fill="black"/>
<path d="M133.137 254.41C154.612 254.397 175.69 248.622 194.172 237.687C212.653 226.751 227.862 211.057 238.211 192.24C248.56 173.424 253.67 152.175 253.008 130.711C252.346 109.246 245.936 88.353 234.447 70.2101C194.587 51.5301 164.967 66.4501 150.677 81.0501C147.247 84.5501 150.347 89.6601 155.247 89.7301C212.027 90.6201 219.797 147.05 181.247 175.41C140.247 205.62 90.2474 164.25 57.9274 152.72C43.5374 147.57 26.7374 150.5 14.8674 154.77C19.6685 182.657 34.1703 207.951 55.8113 226.183C77.4522 244.415 104.84 254.412 133.137 254.41Z" fill="#005DA5"/>
<path fill-rule="evenodd" clip-rule="evenodd" d="M143.637 90.2102V90.2602C144.957 90.1202 146.247 90.0102 147.517 89.9202C146.207 90.0002 144.927 90.0802 143.637 90.2102ZM190.837 101.21C212.627 119.32 209.067 154.57 181.207 175.08C150.017 198.08 113.617 179.48 83.8375 164.29C74.5975 159.58 65.9875 155.19 58.3775 152.47C32.6475 143.28 4.13745 157.11 5.22745 160.94L29.5675 213.15C41.6875 208.81 56.7175 203.82 73.2275 204.94C88.9575 206.01 103.597 210.14 117.637 214.1C146.017 222.1 171.907 229.41 199.257 209.27C242.247 177.61 228.037 124.37 190.837 101.19V101.21Z" fill="#57B3F1"/>
<path d="M48.0375 169.19C38.2575 168.19 23.3375 171.24 14.7975 174.51C14.4342 174.655 14.1052 174.874 13.8316 175.154C13.5579 175.433 13.3455 175.767 13.2081 176.133C13.0707 176.499 13.0112 176.89 13.0335 177.28C13.0558 177.671 13.1593 178.052 13.3375 178.4L22.7475 198C22.9578 198.418 23.2628 198.78 23.6381 199.059C24.0134 199.337 24.4486 199.525 24.9091 199.605C25.3695 199.686 25.8424 199.658 26.2901 199.523C26.7378 199.389 27.1478 199.151 27.4875 198.83C31.4275 194.98 36.8475 190.04 44.0375 187.23C62.0375 180.18 82.5475 189.41 93.0375 192.73C98.1775 194.35 105.807 196.85 113.307 198.81C116.577 199.66 117.207 197.02 114.027 195.9L105.027 192.73C90.3675 186.35 63.0375 170.69 48.0375 169.19Z" fill="#CCEBFF"/>
<path d="M98.0375 222.5C81.3375 220.74 51.7075 222.29 39.0375 227.62L105.537 257.62H164.537C156.037 247.29 142.537 238.62 142.537 238.62C122.757 226.65 113.037 224.08 98.0375 222.5Z" fill="#002B48"/>
<path d="M197.737 87.4202C226.367 101.25 242.977 134.82 250.097 157.77C251.017 160.77 255.337 160.77 256.027 157.77C261.387 134.37 264.217 99.6602 245.537 89.4702C228.717 80.2902 210.247 80.0802 198.157 81.9002C195.267 82.3402 195.107 86.1502 197.737 87.4202Z" fill="#002B48"/>
<path fill-rule="evenodd" clip-rule="evenodd" d="M253.037 134.5C253.037 158.135 246.029 181.239 232.898 200.891C219.767 220.542 201.104 235.859 179.268 244.904C157.432 253.948 133.405 256.315 110.224 251.704C87.0434 247.093 65.7506 235.712 49.0382 218.999C32.3258 202.287 20.9445 180.994 16.3336 157.813C11.7227 134.633 14.0892 110.605 23.1339 88.7695C32.1785 66.9337 47.4951 48.2703 67.1468 35.1395C86.7985 22.0087 109.903 15.0001 133.537 15.0001C139.786 15.0001 146.024 15.4849 152.197 16.4501C156.767 17.1601 159.047 17.5201 160.127 18.2401C160.827 18.6972 161.422 19.2951 161.877 19.9957C162.332 20.6962 162.635 21.484 162.768 22.3086C162.901 23.1332 162.86 23.9764 162.648 24.7842C162.436 25.5921 162.058 26.3468 161.537 27.0001C160.727 28.0001 158.147 29.3501 152.967 32.0001C149.137 33.9417 145.46 36.1715 141.967 38.6701C141.151 39.2432 140.457 39.9734 139.926 40.8181C139.395 41.6627 139.038 42.6047 138.876 43.589C138.714 44.5732 138.75 45.58 138.981 46.5503C139.213 47.5206 139.636 48.435 140.225 49.2398C140.814 50.0447 141.558 50.7239 142.413 51.2377C143.268 51.7515 144.217 52.0895 145.205 52.232C146.192 52.3745 147.198 52.3186 148.163 52.0676C149.129 51.8166 150.035 51.3755 150.827 50.7701C158.137 45.4201 177.487 35.3301 197.967 35.3201C198.301 35.3027 198.634 35.3027 198.967 35.3201C199.772 35.4178 200.551 35.6618 201.267 36.0401C201.537 36.2001 201.747 36.3401 202.157 36.6301C217.885 47.648 230.722 62.2977 239.58 79.3357C248.438 96.3737 253.054 115.297 253.037 134.5ZM207.497 22.0501L208.187 22.5901C208.26 22.6491 208.337 22.7026 208.417 22.7501L208.527 22.8301C237.816 42.5618 258.115 73.0739 264.996 107.712C271.878 142.35 264.784 178.304 245.262 207.733C225.74 237.162 195.374 257.678 160.785 264.806C126.197 271.935 90.1935 265.098 60.6261 245.787C31.0586 226.476 10.3263 196.257 2.9507 161.721C-4.42492 127.184 2.1545 91.1326 21.2541 61.4279C40.3536 31.7233 70.4238 10.7757 104.907 3.15358C139.389 -4.46853 175.487 1.85322 205.327 20.7401L205.427 20.8101C205.504 20.8594 205.584 20.9028 205.667 20.9401L206.457 21.3701C206.82 21.5721 207.167 21.7993 207.497 22.0501ZM130.497 61.0501C132.078 62.2571 133.114 64.0423 133.378 66.0132C133.643 67.9841 133.114 69.9793 131.907 71.5601C130.903 72.9512 130.032 74.4346 129.307 75.9901C128.317 78.0119 127.642 80.1737 127.307 82.4001C127.19 83.383 126.88 84.3329 126.394 85.1952C125.908 86.0575 125.256 86.815 124.476 87.4242C123.696 88.0333 122.803 88.4821 121.848 88.7444C120.894 89.0068 119.897 89.0777 118.915 88.953C117.933 88.8283 116.986 88.5104 116.127 88.0178C115.269 87.5251 114.516 86.8674 113.913 86.0826C113.31 85.2977 112.868 84.4013 112.613 83.4449C112.358 82.4885 112.295 81.4911 112.427 80.5101C113.427 72.5101 117.897 65.2601 120.037 62.5101C121.227 60.9208 123 59.869 124.965 59.5859C126.93 59.3027 128.927 59.8114 130.517 61.0001L130.497 61.0501Z" fill="#005DA5"/>
<path d="M200.037 26.5001L177.537 38.0001C198.737 33.6001 211.707 42.6701 216.037 48.0001L200.037 26.5001Z" fill="#005DA5"/>
</svg>
