<svg xmlns="http://www.w3.org/2000/svg" viewBox="0 0 157.2 68.06"><defs><style>.cls-1{fill:#fece07;}.cls-2{fill:#fff;}.cls-3{fill:#f9d341;}.cls-4{fill:none;}</style></defs><g id="Layer_2" data-name="Layer 2"><g id="Layer_1-2" data-name="Layer 1"><polygon class="cls-1" points="48.7 46.21 48.7 57.57 48.16 58.11 36.8 58.11 48.7 46.21"/><polygon class="cls-2" points="30.36 27.32 15.57 42.11 0 57.68 0 46.33 7.27 39.06 9.89 36.44 24.72 21.6 30.36 27.32"/><polygon class="cls-3" points="24.63 0.13 12.7 12.06 0.02 24.74 0 24.76 0 25.04 0 29.2 0 36.12 6.92 29.2 7.27 28.85 8.76 27.36 30.24 5.89 24.63 0.13"/><polygon class="cls-3" points="34.02 46.01 29.89 50.15 21.93 58.11 10.22 58.11 29.64 38.69 34.02 46.01"/><polygon class="cls-4" points="48.7 24.76 48.7 58.11 0 58.11 0 25.04 0.29 24.74 12.7 12.06 24.5 0 24.63 0.13 30.18 5.83 30.24 5.89 30.25 5.9 48.7 24.76"/><path class="cls-2" d="M49,21.87V58.11H32.44c-2.14,0-5.66-3.21-5.66-11.26q0-5.44,2.91-8.19a11.19,11.19,0,0,1,8-2.74l4,0V29.05ZM34.26,47.06q0,5.77,5.1,5.78a6.08,6.08,0,0,0,2.34-.38V41.66a5.33,5.33,0,0,0-2.38-.47,5,5,0,0,0-3.59,1.38c-1,.93-1.47,2.42-1.47,4.49"/><path class="cls-2" d="M98.92,25A3.72,3.72,0,1,1,100,27.64,3.62,3.62,0,0,1,98.92,25m-67.58-8.3a4,4,0,1,1,8,0,3.82,3.82,0,0,1-1.17,2.8,4,4,0,0,1-5.68,0,3.82,3.82,0,0,1-1.17-2.8M99,35.79h7.27V58.07H99Z"/><path class="cls-2" d="M135.39,58.07V37.41a20.17,20.17,0,0,1,4.76-1.17,41.77,41.77,0,0,1,6.08-.45,13.47,13.47,0,0,1,7.93,2.15,7.47,7.47,0,0,1,3,6.53v13.6h-7.27V44.81q0-3.8-3.87-3.79a8.06,8.06,0,0,0-3.4.6V58.07Z"/><path class="cls-2" d="M87.23,35.79q-10,0-10,7a5.92,5.92,0,0,0,1.17,3.8,5.75,5.75,0,0,0,2.85,2,27.22,27.22,0,0,0,3.36.79,17.12,17.12,0,0,1,2.85.68c.78.26,1.17.65,1.17,1.16,0,1.08-1.33,1.62-4,1.62a16.28,16.28,0,0,1-6.5-1.23V57a25,25,0,0,0,7.48,1q10.34,0,10.33-7.06a6.06,6.06,0,0,0-1.17-3.86,5.92,5.92,0,0,0-2.85-2,24.22,24.22,0,0,0-3.36-.83,21.58,21.58,0,0,1-2.84-.63c-.78-.24-1.17-.62-1.17-1.13q0-1.44,3.36-1.44A14.42,14.42,0,0,1,94,42.45V36.9a22,22,0,0,0-6.8-1.11"/><path class="cls-2" d="M65.38,52.84a7.29,7.29,0,0,1-4.25-1,3.54,3.54,0,0,1-1.36-3.1H74a10.16,10.16,0,0,0,.34-2.55q0-5.31-2.91-7.86c-2-1.71-4.67-2.56-8.19-2.56s-6.3.9-8.29,2.7-3,4.62-3,8.44q0,11.19,13.35,11.18a37,37,0,0,0,8.5-1.28V51.39a27.06,27.06,0,0,1-8.46,1.45M63.25,40.68a3,3,0,0,1,2.53,1A5.45,5.45,0,0,1,66.57,45H60.15l-.38-.55q0-3.8,3.48-3.79"/><path class="cls-2" d="M122.51,35.79q-12.75,0-12.75,11.27c0,3.66,1,6.38,2.95,8.18a11.43,11.43,0,0,0,8,2.7,11.81,11.81,0,0,0,4-.55v1.44q0,4-5.49,4a18.16,18.16,0,0,1-7.81-1.54v5.25a18.42,18.42,0,0,0,7.3,1.52c1.22,0,2.41,0,3.58-.13a11.69,11.69,0,0,0,7.2-2.87q2.49-2.4,2.49-7.63V37.32a27.28,27.28,0,0,0-9.44-1.53m2.17,16.46a6.61,6.61,0,0,1-2.34.46,4.66,4.66,0,0,1-3.76-1.57,6.48,6.48,0,0,1-1.34-4.33,6.2,6.2,0,0,1,1.34-4.34A4.83,4.83,0,0,1,122.3,41a6.91,6.91,0,0,1,2.38.38Z"/></g></g></svg>